<svg width="16" height="30" viewBox="0 0 16 30" fill="none" xmlns="http://www.w3.org/2000/svg">
<path d="M5.63487 29.2659C6.57122 29.2659 7.33028 28.5457 7.33028 27.6573C7.33028 26.7689 6.57122 26.0487 5.63487 26.0487C4.69852 26.0487 3.93945 26.7689 3.93945 27.6573C3.93945 28.5457 4.69852 29.2659 5.63487 29.2659Z" fill="#EE24FF"/>
<path d="M8.84222 0.0474852C6.75047 -0.176384 4.65067 0.397314 3.00474 1.64237C1.35881 2.88743 0.301573 4.70185 0.0656223 6.6865C-0.425721 10.8193 1.86907 19.7938 6.05294 23.5089C8.02292 16.3911 14.9261 12.1693 15.8395 8.3747C16.8155 4.32009 13.1981 0.513671 8.84222 0.0474852Z" fill="#EE24FF"/>
<path d="M8.02527 8.99947C9.45486 8.99947 10.6138 7.89989 10.6138 6.5435C10.6138 5.1871 9.45486 4.08752 8.02527 4.08752C6.59568 4.08752 5.43677 5.1871 5.43677 6.5435C5.43677 7.89989 6.59568 8.99947 8.02527 8.99947Z" fill="white"/>
</svg>
